<svg width="32" height="32" viewBox="0 0 32 32" fill="none" xmlns="http://www.w3.org/2000/svg">
<path d="M18.5144 26.1131C18.2244 25.7307 17.9817 25.661 17.4793 25.5641H16.8032C16.5007 25.5654 16.2022 25.5666 16.1569 25.5641H16.1402C16.1064 25.566 16.0371 25.5727 16.0892 25.5641C16.0897 25.1225 16.0892 24.534 16.0892 23.956V21.067V20.2324C16.0892 16.766 13.8279 17.1694 13.8457 20.1789L13.6853 20.2062C13.6596 20.2125 13.6334 20.2189 13.532 20.2322C13.1432 20.4484 12.8817 20.7405 12.7294 21.1346C12.6596 21.5381 12.6699 21.9047 12.8743 22.2728C13.1668 22.6269 13.298 22.717 13.778 22.8002C13.7705 23.6073 13.7819 23.7264 13.778 24.5336V25.6892C13.7764 26.0686 13.7814 25.8875 13.778 26.267C13.7741 26.6701 13.7794 27.0195 13.778 27.4226C13.7777 27.5762 13.7787 27.8467 13.778 28.0004C13.7752 28.221 13.7783 28.3575 13.778 28.5782V29.156C13.7672 29.6834 13.7408 29.6965 13.778 29.7338L14.9336 30.8894L16.0892 29.7338C16.0847 29.5194 16.0967 29.3703 16.0892 29.156V29.1408V28.1076C16.2979 28.0846 17.6048 28.1389 17.8122 28.1076C18.146 27.9219 18.3666 27.6929 18.55 27.3741C18.7122 26.9511 18.6687 26.531 18.5144 26.1131Z" fill="#E11D48"/>
<rect x="16.0891" y="21.645" width="1.1556" height="1.1556" fill="#E11D48"/>
<path d="M8 5.05894L10.889 2.50982L14.9336 2V19.334L8 14.2357V5.05894Z" fill="#E11D48"/>
<path d="M9.28555 5.57155L11.4664 3.02134L14.8543 2.00039L15.0046 19.3339L9.27965 16.2779L9.28555 5.57155Z" fill="#B21739"/>
<path d="M21.8672 5.05894L18.4004 2.50982L14.9336 2V19.334L21.8672 14.2357V5.05894Z" fill="#B21739"/>
<path d="M20.7253 5.58929L18.4094 3.0412L15.014 2.02331L15.0045 19.3575L20.7194 16.2755L20.7253 5.58929Z" fill="#E11D48"/>
<path d="M19.5565 19.912C21.6382 19.912 22.4452 20.4903 23.7549 21.3621C23.023 22.2234 22.1429 22.9932 20.1338 23.379C18.0283 23.8253 17.4333 22.8427 16.667 22.223C16.6671 21.1097 17.5473 20.2978 19.5565 19.912Z" fill="#E11D48"/>
</svg>
