<svg width="124" height="45" viewBox="0 0 124 45" fill="none" xmlns="http://www.w3.org/2000/svg">
<path d="M24.0987 30.8667C23.8477 30.5358 23.6376 30.4754 23.2029 30.3916H22.6179C22.356 30.3927 22.0978 30.3937 22.0586 30.3916H22.0441C22.0148 30.3933 21.9549 30.399 22 30.3916C22.0004 30.0095 22 29.5002 22 29V26.5V25.7778C22 22.7781 20.0432 23.1272 20.0586 25.7315L19.9198 25.7551C19.8975 25.7606 19.8748 25.7661 19.7871 25.7776C19.4507 25.9647 19.2243 26.2175 19.0926 26.5585C19.0322 26.9077 19.0411 27.2249 19.218 27.5435C19.471 27.8498 19.5846 27.9279 20 27.9998C19.9935 28.6983 20.0033 28.8013 20 29.4998V30.4998C19.9986 30.8282 20.0029 30.6715 20 30.9998C19.9966 31.3486 20.0012 31.651 20 31.9998C19.9997 32.1328 20.0006 32.3668 20 32.4998C19.9976 32.6907 20.0002 32.8089 20 32.9998V33.4998C19.9906 33.9562 19.9678 33.9676 20 33.9998L21 34.9998L22 33.9998C21.9961 33.8143 22.0065 33.6853 22 33.4998V33.4867V32.5926C22.1806 32.5727 23.3115 32.6197 23.491 32.5926C23.7798 32.432 23.9707 32.2338 24.1294 31.9579C24.2698 31.5919 24.2322 31.2283 24.0987 30.8667Z" fill="#E11D48"/>
<path d="M15 12.6471L17.5 10.4412L21 10V25L15 20.5882V12.6471Z" fill="#E11D48"/>
<path d="M16.1124 13.0906L17.9995 10.8838L20.9313 10.0003L21.0614 24.9999L16.1073 22.3554L16.1124 13.0906Z" fill="#B21739"/>
<path d="M27 12.6471L24 10.4412L21 10V25L27 20.5882V12.6471Z" fill="#B21739"/>
<path d="M26.0118 13.106L24.0078 10.901L21.0696 10.0202L21.0614 25.0203L26.0068 22.3534L26.0118 13.106Z" fill="#E11D48"/>
<path d="M24.9997 25.4999C26.8013 25.4999 27.5002 26.0006 28.6337 26.755C28.0003 27.5004 27.2387 28.1664 25.5003 28.5003C23.6785 28.8865 23.163 28.0366 22.5001 27.5003C22.5001 26.5369 23.2612 25.8338 24.9997 25.4999Z" fill="#E11D48"/>
<rect x="22" y="27" width="1" height="1" fill="#E11D48"/>
<path d="M36.296 35C35.448 35 34.688 34.8 34.016 34.4C33.36 34 32.84 33.456 32.456 32.768C32.072 32.064 31.88 31.264 31.88 30.368V18.632C31.88 18.36 31.96 18.136 32.12 17.96C32.296 17.784 32.52 17.696 32.792 17.696C33.064 17.696 33.288 17.784 33.464 17.96C33.64 18.136 33.728 18.36 33.728 18.632V30.368C33.728 31.184 33.968 31.856 34.448 32.384C34.928 32.896 35.544 33.152 36.296 33.152H36.944C37.2 33.152 37.408 33.24 37.568 33.416C37.728 33.592 37.808 33.816 37.808 34.088C37.808 34.36 37.712 34.584 37.52 34.76C37.328 34.92 37.088 35 36.8 35H36.296ZM30.32 23.96C30.08 23.96 29.88 23.888 29.72 23.744C29.56 23.584 29.48 23.392 29.48 23.168C29.48 22.928 29.56 22.736 29.72 22.592C29.88 22.432 30.08 22.352 30.32 22.352H36.44C36.68 22.352 36.88 22.432 37.04 22.592C37.2 22.736 37.28 22.928 37.28 23.168C37.28 23.392 37.2 23.584 37.04 23.744C36.88 23.888 36.68 23.96 36.44 23.96H30.32ZM41.9923 35C41.7203 35 41.4963 34.912 41.3203 34.736C41.1443 34.56 41.0563 34.336 41.0563 34.064V17.192C41.0563 16.92 41.1443 16.696 41.3203 16.52C41.4963 16.344 41.7203 16.256 41.9923 16.256H46.3123C47.6883 16.256 48.9443 16.488 50.0803 16.952C51.2323 17.4 52.2243 18.048 53.0563 18.896C53.8883 19.728 54.5283 20.712 54.9763 21.848C55.4403 22.984 55.6723 24.24 55.6723 25.616C55.6723 26.992 55.4403 28.256 54.9763 29.408C54.5283 30.544 53.8883 31.536 53.0563 32.384C52.2243 33.216 51.2323 33.864 50.0803 34.328C48.9443 34.776 47.6883 35 46.3123 35H41.9923ZM42.9283 33.32H46.3123C47.7843 33.32 49.0803 32.992 50.2003 32.336C51.3363 31.664 52.2243 30.752 52.8643 29.6C53.5043 28.432 53.8243 27.104 53.8243 25.616C53.8243 24.128 53.5043 22.808 52.8643 21.656C52.2243 20.488 51.3363 19.576 50.2003 18.92C49.0803 18.264 47.7843 17.936 46.3123 17.936H42.9283V33.32ZM65.069 35.12C63.837 35.12 62.733 34.832 61.757 34.256C60.781 33.664 60.005 32.864 59.429 31.856C58.869 30.848 58.589 29.712 58.589 28.448C58.589 27.168 58.877 26.024 59.453 25.016C60.045 24.008 60.845 23.216 61.853 22.64C62.861 22.048 63.997 21.752 65.261 21.752C66.525 21.752 67.653 22.048 68.645 22.64C69.653 23.216 70.445 24.008 71.021 25.016C71.613 26.024 71.917 27.168 71.933 28.448L71.189 29.024C71.189 30.176 70.917 31.216 70.373 32.144C69.845 33.056 69.117 33.784 68.189 34.328C67.277 34.856 66.237 35.12 65.069 35.12ZM65.261 33.44C66.189 33.44 67.013 33.224 67.733 32.792C68.469 32.36 69.045 31.768 69.461 31.016C69.893 30.248 70.109 29.392 70.109 28.448C70.109 27.488 69.893 26.632 69.461 25.88C69.045 25.128 68.469 24.536 67.733 24.104C67.013 23.656 66.189 23.432 65.261 23.432C64.349 23.432 63.525 23.656 62.789 24.104C62.053 24.536 61.469 25.128 61.037 25.88C60.605 26.632 60.389 27.488 60.389 28.448C60.389 29.392 60.605 30.248 61.037 31.016C61.469 31.768 62.053 32.36 62.789 32.792C63.525 33.224 64.349 33.44 65.261 33.44ZM70.997 35C70.725 35 70.501 34.92 70.325 34.76C70.149 34.584 70.061 34.36 70.061 34.088V29.984L70.517 28.088L71.933 28.448V34.088C71.933 34.36 71.845 34.584 71.669 34.76C71.493 34.92 71.269 35 70.997 35ZM76.2952 26.912C76.3432 25.92 76.5992 25.032 77.0632 24.248C77.5432 23.464 78.1592 22.848 78.9112 22.4C79.6792 21.952 80.5272 21.728 81.4552 21.728C82.1912 21.728 82.7592 21.832 83.1592 22.04C83.5592 22.248 83.7112 22.552 83.6152 22.952C83.5512 23.192 83.4392 23.352 83.2792 23.432C83.1352 23.512 82.9512 23.544 82.7272 23.528C82.5192 23.512 82.2792 23.496 82.0072 23.48C81.1112 23.4 80.3112 23.496 79.6072 23.768C78.9192 24.024 78.3672 24.424 77.9512 24.968C77.5512 25.512 77.3512 26.16 77.3512 26.912H76.2952ZM76.4392 35C76.1512 35 75.9272 34.92 75.7672 34.76C75.6072 34.6 75.5272 34.376 75.5272 34.088V22.784C75.5272 22.496 75.6072 22.272 75.7672 22.112C75.9272 21.952 76.1512 21.872 76.4392 21.872C76.7272 21.872 76.9512 21.952 77.1112 22.112C77.2712 22.272 77.3512 22.496 77.3512 22.784V34.088C77.3512 34.376 77.2712 34.6 77.1112 34.76C76.9512 34.92 76.7272 35 76.4392 35ZM91.6554 35C90.8074 35 90.0474 34.8 89.3754 34.4C88.7194 34 88.1994 33.456 87.8154 32.768C87.4314 32.064 87.2394 31.264 87.2394 30.368V18.632C87.2394 18.36 87.3194 18.136 87.4794 17.96C87.6554 17.784 87.8794 17.696 88.1514 17.696C88.4234 17.696 88.6474 17.784 88.8234 17.96C88.9994 18.136 89.0874 18.36 89.0874 18.632V30.368C89.0874 31.184 89.3274 31.856 89.8074 32.384C90.2874 32.896 90.9034 33.152 91.6554 33.152H92.3034C92.5594 33.152 92.7674 33.24 92.9274 33.416C93.0874 33.592 93.1674 33.816 93.1674 34.088C93.1674 34.36 93.0714 34.584 92.8794 34.76C92.6874 34.92 92.4474 35 92.1594 35H91.6554ZM85.6794 23.96C85.4394 23.96 85.2394 23.888 85.0794 23.744C84.9194 23.584 84.8394 23.392 84.8394 23.168C84.8394 22.928 84.9194 22.736 85.0794 22.592C85.2394 22.432 85.4394 22.352 85.6794 22.352H91.7994C92.0394 22.352 92.2394 22.432 92.3994 22.592C92.5594 22.736 92.6394 22.928 92.6394 23.168C92.6394 23.392 92.5594 23.584 92.3994 23.744C92.2394 23.888 92.0394 23.96 91.7994 23.96H85.6794ZM100.76 35.12C99.8156 35.12 98.8796 34.96 97.9516 34.64C97.0236 34.32 96.2716 33.84 95.6956 33.2C95.5196 33.008 95.4476 32.792 95.4796 32.552C95.5116 32.312 95.6316 32.104 95.8396 31.928C96.0636 31.768 96.2956 31.704 96.5356 31.736C96.7756 31.768 96.9756 31.872 97.1356 32.048C97.5196 32.496 98.0236 32.84 98.6476 33.08C99.2876 33.32 99.9916 33.44 100.76 33.44C101.944 33.44 102.8 33.24 103.328 32.84C103.856 32.424 104.128 31.928 104.144 31.352C104.144 30.776 103.872 30.304 103.328 29.936C102.784 29.552 101.888 29.256 100.64 29.048C99.0236 28.792 97.8396 28.344 97.0876 27.704C96.3356 27.064 95.9596 26.304 95.9596 25.424C95.9596 24.608 96.1756 23.928 96.6076 23.384C97.0396 22.84 97.6156 22.432 98.3356 22.16C99.0556 21.888 99.8476 21.752 100.712 21.752C101.784 21.752 102.704 21.936 103.472 22.304C104.256 22.672 104.888 23.168 105.368 23.792C105.528 24 105.592 24.216 105.56 24.44C105.528 24.664 105.4 24.848 105.176 24.992C104.984 25.104 104.76 25.144 104.504 25.112C104.264 25.064 104.056 24.944 103.88 24.752C103.48 24.288 103.016 23.952 102.488 23.744C101.96 23.52 101.352 23.408 100.664 23.408C99.7836 23.408 99.0796 23.592 98.5516 23.96C98.0236 24.312 97.7596 24.76 97.7596 25.304C97.7596 25.672 97.8556 25.992 98.0476 26.264C98.2556 26.536 98.5996 26.776 99.0796 26.984C99.5756 27.192 100.264 27.368 101.144 27.512C102.344 27.704 103.288 27.992 103.976 28.376C104.68 28.744 105.176 29.184 105.464 29.696C105.768 30.192 105.92 30.736 105.92 31.328C105.92 32.08 105.696 32.744 105.248 33.32C104.816 33.88 104.208 34.32 103.424 34.64C102.656 34.96 101.768 35.12 100.76 35.12Z" fill="black"/>
</svg>
