<svg width="25" height="25" viewBox="0 0 25 25" fill="none" xmlns="http://www.w3.org/2000/svg">
<path d="M15.0987 20.8667C14.8477 20.5358 14.6376 20.4754 14.2029 20.3916H13.6179C13.356 20.3927 13.0978 20.3937 13.0586 20.3916H13.0441C13.0148 20.3933 12.9549 20.399 13 20.3916C13.0004 20.0095 13 19.5002 13 19V16.5V15.7778C13 12.7781 11.0432 13.1272 11.0586 15.7315L10.9198 15.7551C10.8975 15.7606 10.8748 15.7661 10.7871 15.7776C10.4507 15.9647 10.2243 16.2175 10.0926 16.5585C10.0322 16.9077 10.0411 17.2249 10.218 17.5435C10.471 17.8498 10.5846 17.9279 11 17.9998C10.9935 18.6983 11.0033 18.8013 11 19.4998V20.4998C10.9986 20.8282 11.0029 20.6715 11 20.9998C10.9966 21.3486 11.0012 21.651 11 21.9998C10.9997 22.1328 11.0006 22.3668 11 22.4998C10.9976 22.6907 11.0002 22.8089 11 22.9998V23.4998C10.9906 23.9562 10.9678 23.9676 11 23.9998L12 24.9998L13 23.9998C12.9961 23.8143 13.0065 23.6853 13 23.4998V23.4867V22.5926C13.1806 22.5727 14.3115 22.6197 14.491 22.5926C14.7798 22.432 14.9707 22.2338 15.1294 21.9579C15.2698 21.5919 15.2322 21.2283 15.0987 20.8667Z" fill="#E11D48"/>
<rect x="13" y="17" width="1" height="1" fill="#E11D48"/>
<path d="M6 2.64706L8.5 0.441176L12 0V15L6 10.5882V2.64706Z" fill="#E11D48"/>
<path d="M7.11237 3.09064L8.99954 0.883799L11.9313 0.000317378L12.0614 14.9999L7.10726 12.3554L7.11237 3.09064Z" fill="#B21739"/>
<path d="M18 2.64706L15 0.441176L12 0V15L18 10.5882V2.64706Z" fill="#B21739"/>
<path d="M17.0118 3.106L15.0078 0.901007L12.0696 0.0201716L12.0614 15.0203L17.0068 12.3534L17.0118 3.106Z" fill="#E11D48"/>
<path d="M15.9997 15.4999C17.8013 15.4999 18.5002 16.0006 19.6337 16.755C19.0003 17.5004 18.2387 18.1664 16.5003 18.5003C14.6785 18.8865 14.163 18.0366 13.5001 17.5003C13.5001 16.5369 14.2612 15.8338 15.9997 15.4999Z" fill="#E11D48"/>
</svg>
